<?xml version="1.0" encoding="utf-8"?>
<!DOCTYPE svg PUBLIC "-//W3C//DTD SVG 1.0//EN" "http://www.w3.org/TR/2001/REC-SVG-20010904/DTD/svg10.dtd">
<svg width="190" height="100" preserveAspectRatio="xMidYMid meet" zoomAndPan="magnify" version="1.0" contentScriptType="text/ecmascript" contentStyleType="text/css" xmlns:svg="http://www.w3.org/2000/svg" xmlns:xlink="http://www.w3.org/1999/xlink" xmlns="http://www.w3.org/2000/svg"><title content="structured text">UNITED STATES</title><defs><polygon id="star5" points="             0, -1             0.587785252292473, 0.809016994374947             -0.951056516295154, -0.309016994374947             0.951056516295154, -0.309016994374947             -0.587785252292473, 0.809016994374947         "/></defs><rect width="100%" height="100%" fill="#DB828C"/>
        
            
            
            
            
            
            
            
        
        
            
            
            
            
            
            
            
            
            
            
            
            
            
            
            
            
            
            
            
            
            
            
            
            
            
            
            
            
            
            
            
            
            
            
            
            
            
            
            
            
            
            
            
            
            
            
            
            
            
            
        
    <g>
        <g fill="white" transform="scale(7.6923)">
            <rect y="1" width="100%" height="1"/>
            <rect y="3" width="100%" height="1"/>
            <rect y="5" width="100%" height="1"/>
            <rect y="7" width="100%" height="1"/>
            <rect y="9" width="100%" height="1"/>
            <rect y="11" width="100%" height="1"/>
            <rect height="7" width="10" fill="#002868"/>
        </g>
        <g fill="white" transform="scale(6.3,5.4)">
            <use xlink:href="#star5" transform="translate(1,1) scale(0.49,0.57)" xlink:type="simple" xlink:show="embed" xlink:actuate="onLoad"/>
            <use xlink:href="#star5" transform="translate(3,1) scale(0.49,0.57)" xlink:type="simple" xlink:show="embed" xlink:actuate="onLoad"/>
            <use xlink:href="#star5" transform="translate(5,1) scale(0.49,0.57)" xlink:type="simple" xlink:show="embed" xlink:actuate="onLoad"/>
            <use xlink:href="#star5" transform="translate(7,1) scale(0.49,0.57)" xlink:type="simple" xlink:show="embed" xlink:actuate="onLoad"/>
            <use xlink:href="#star5" transform="translate(9,1) scale(0.49,0.57)" xlink:type="simple" xlink:show="embed" xlink:actuate="onLoad"/>
            <use xlink:href="#star5" transform="translate(11,1) scale(0.49,0.57)" xlink:type="simple" xlink:show="embed" xlink:actuate="onLoad"/>
            <use xlink:href="#star5" transform="translate(2,2) scale(0.49,0.57)" xlink:type="simple" xlink:show="embed" xlink:actuate="onLoad"/>
            <use xlink:href="#star5" transform="translate(4,2) scale(0.49,0.57)" xlink:type="simple" xlink:show="embed" xlink:actuate="onLoad"/>
            <use xlink:href="#star5" transform="translate(6,2) scale(0.49,0.57)" xlink:type="simple" xlink:show="embed" xlink:actuate="onLoad"/>
            <use xlink:href="#star5" transform="translate(8,2) scale(0.49,0.57)" xlink:type="simple" xlink:show="embed" xlink:actuate="onLoad"/>
            <use xlink:href="#star5" transform="translate(10,2) scale(0.49,0.57)" xlink:type="simple" xlink:show="embed" xlink:actuate="onLoad"/>
            <use xlink:href="#star5" transform="translate(1,3) scale(0.49,0.57)" xlink:type="simple" xlink:show="embed" xlink:actuate="onLoad"/>
            <use xlink:href="#star5" transform="translate(3,3) scale(0.49,0.57)" xlink:type="simple" xlink:show="embed" xlink:actuate="onLoad"/>
            <use xlink:href="#star5" transform="translate(5,3) scale(0.49,0.57)" xlink:type="simple" xlink:show="embed" xlink:actuate="onLoad"/>
            <use xlink:href="#star5" transform="translate(7,3) scale(0.49,0.57)" xlink:type="simple" xlink:show="embed" xlink:actuate="onLoad"/>
            <use xlink:href="#star5" transform="translate(9,3) scale(0.49,0.57)" xlink:type="simple" xlink:show="embed" xlink:actuate="onLoad"/>
            <use xlink:href="#star5" transform="translate(11,3) scale(0.49,0.57)" xlink:type="simple" xlink:show="embed" xlink:actuate="onLoad"/>
            <use xlink:href="#star5" transform="translate(2,4) scale(0.49,0.57)" xlink:type="simple" xlink:show="embed" xlink:actuate="onLoad"/>
            <use xlink:href="#star5" transform="translate(4,4) scale(0.49,0.57)" xlink:type="simple" xlink:show="embed" xlink:actuate="onLoad"/>
            <use xlink:href="#star5" transform="translate(6,4) scale(0.49,0.57)" xlink:type="simple" xlink:show="embed" xlink:actuate="onLoad"/>
            <use xlink:href="#star5" transform="translate(8,4) scale(0.49,0.57)" xlink:type="simple" xlink:show="embed" xlink:actuate="onLoad"/>
            <use xlink:href="#star5" transform="translate(10,4) scale(0.49,0.57)" xlink:type="simple" xlink:show="embed" xlink:actuate="onLoad"/>
            <use xlink:href="#star5" transform="translate(1,5) scale(0.49,0.57)" xlink:type="simple" xlink:show="embed" xlink:actuate="onLoad"/>
            <use xlink:href="#star5" transform="translate(3,5) scale(0.49,0.57)" xlink:type="simple" xlink:show="embed" xlink:actuate="onLoad"/>
            <use xlink:href="#star5" transform="translate(5,5) scale(0.49,0.57)" xlink:type="simple" xlink:show="embed" xlink:actuate="onLoad"/>
            <use xlink:href="#star5" transform="translate(7,5) scale(0.49,0.57)" xlink:type="simple" xlink:show="embed" xlink:actuate="onLoad"/>
            <use xlink:href="#star5" transform="translate(9,5) scale(0.49,0.57)" xlink:type="simple" xlink:show="embed" xlink:actuate="onLoad"/>
            <use xlink:href="#star5" transform="translate(11,5) scale(0.49,0.57)" xlink:type="simple" xlink:show="embed" xlink:actuate="onLoad"/>
            <use xlink:href="#star5" transform="translate(2,6) scale(0.49,0.57)" xlink:type="simple" xlink:show="embed" xlink:actuate="onLoad"/>
            <use xlink:href="#star5" transform="translate(4,6) scale(0.49,0.57)" xlink:type="simple" xlink:show="embed" xlink:actuate="onLoad"/>
            <use xlink:href="#star5" transform="translate(6,6) scale(0.49,0.57)" xlink:type="simple" xlink:show="embed" xlink:actuate="onLoad"/>
            <use xlink:href="#star5" transform="translate(8,6) scale(0.49,0.57)" xlink:type="simple" xlink:show="embed" xlink:actuate="onLoad"/>
            <use xlink:href="#star5" transform="translate(10,6) scale(0.49,0.57)" xlink:type="simple" xlink:show="embed" xlink:actuate="onLoad"/>
            <use xlink:href="#star5" transform="translate(1,7) scale(0.49,0.57)" xlink:type="simple" xlink:show="embed" xlink:actuate="onLoad"/>
            <use xlink:href="#star5" transform="translate(3,7) scale(0.49,0.57)" xlink:type="simple" xlink:show="embed" xlink:actuate="onLoad"/>
            <use xlink:href="#star5" transform="translate(5,7) scale(0.49,0.57)" xlink:type="simple" xlink:show="embed" xlink:actuate="onLoad"/>
            <use xlink:href="#star5" transform="translate(7,7) scale(0.49,0.57)" xlink:type="simple" xlink:show="embed" xlink:actuate="onLoad"/>
            <use xlink:href="#star5" transform="translate(9,7) scale(0.49,0.57)" xlink:type="simple" xlink:show="embed" xlink:actuate="onLoad"/>
            <use xlink:href="#star5" transform="translate(11,7) scale(0.49,0.57)" xlink:type="simple" xlink:show="embed" xlink:actuate="onLoad"/>
            <use xlink:href="#star5" transform="translate(2,8) scale(0.49,0.57)" xlink:type="simple" xlink:show="embed" xlink:actuate="onLoad"/>
            <use xlink:href="#star5" transform="translate(4,8) scale(0.49,0.57)" xlink:type="simple" xlink:show="embed" xlink:actuate="onLoad"/>
            <use xlink:href="#star5" transform="translate(6,8) scale(0.49,0.57)" xlink:type="simple" xlink:show="embed" xlink:actuate="onLoad"/>
            <use xlink:href="#star5" transform="translate(8,8) scale(0.49,0.57)" xlink:type="simple" xlink:show="embed" xlink:actuate="onLoad"/>
            <use xlink:href="#star5" transform="translate(10,8) scale(0.49,0.57)" xlink:type="simple" xlink:show="embed" xlink:actuate="onLoad"/>
            <use xlink:href="#star5" transform="translate(1,9) scale(0.49,0.57)" xlink:type="simple" xlink:show="embed" xlink:actuate="onLoad"/>
            <use xlink:href="#star5" transform="translate(3,9) scale(0.49,0.57)" xlink:type="simple" xlink:show="embed" xlink:actuate="onLoad"/>
            <use xlink:href="#star5" transform="translate(5,9) scale(0.49,0.57)" xlink:type="simple" xlink:show="embed" xlink:actuate="onLoad"/>
            <use xlink:href="#star5" transform="translate(7,9) scale(0.49,0.57)" xlink:type="simple" xlink:show="embed" xlink:actuate="onLoad"/>
            <use xlink:href="#star5" transform="translate(9,9) scale(0.49,0.57)" xlink:type="simple" xlink:show="embed" xlink:actuate="onLoad"/>
            <use xlink:href="#star5" transform="translate(11,9) scale(0.49,0.57)" xlink:type="simple" xlink:show="embed" xlink:actuate="onLoad"/>
        </g>
    </g></svg>